<?xml version="1.0" encoding="utf-8"?>
<!-- Generator: Adobe Illustrator 19.2.1, SVG Export Plug-In . SVG Version: 6.00 Build 0)  -->
<svg version="1.1" id="layer" xmlns="http://www.w3.org/2000/svg" xmlns:xlink="http://www.w3.org/1999/xlink" x="0px" y="0px"
	 viewBox="0 0 652 652" style="enable-background:new 0 0 652 652;" xml:space="preserve">
<style type="text/css">
	.st0{fill:#231F20;}
</style>
<path class="st0" d="M246,285.5h13v35.4c-0.4,15.1-13,26.9-28,26.5c-14.5-0.4-26.1-12-26.5-26.5v-35.4h13v35.4
	c0.3,7.9,6.9,14,14.8,13.7c7.5-0.3,13.4-6.3,13.7-13.7L246,285.5z M309.4,347.4h13v-61.9h-13V347.4z M34,322.6h26.3v-12.2H34v-12.6
	h27.2v-12.3H21v61.9h41v-12.3H34V322.6z M145.4,346.2c2.9,3.5,11.7,5.5,19.6,4.2l-10.7,10.9c-12.5,0-24.8-9.9-27.7-14.2
	c-17-4.4-27.2-21.7-22.9-38.7c4.4-17,21.7-27.2,38.7-22.9s27.2,21.7,22.9,38.7C162.6,334.4,155.2,342.6,145.4,346.2z M153.3,316.4
	c0-10.4-8.4-18.8-18.8-18.8c-10.4,0-18.8,8.4-18.8,18.8c0,10.4,8.4,18.8,18.8,18.8c0,0,0,0,0,0C144.8,335.1,153.2,326.8,153.3,316.4
	L153.3,316.4z M597.2,315.1l21.9-29.8h-16.1l-13.8,18.8l-13.8-18.8h-16.1l22,29.8l-23.6,32.3h16.1l15.6-21.2l15.6,21.2H621
	L597.2,315.1L597.2,315.1z M510,304.4c6.6,8,5.6,19.8-2.4,26.4c-5.3,4.4-12.5,5.5-18.8,3.1l-7.8,10.7c15.6,8,34.8,1.9,42.8-13.7
	c6.4-12.4,4-27.5-6-37.3L510,304.4L510,304.4z M413.1,324l-29.7-38.6h-12.5v61.9h13v-39.9l30.7,39.9h11.4v-61.8h-13V324H413.1z
	 M476.8,316.4c0.1-10.4,8.5-18.7,18.8-18.8c2.4,0,4.8,0.5,7,1.4l7.8-10.7c-15.5-8.1-34.7-2.2-42.9,13.4c-6.6,12.5-4.1,27.9,6.1,37.7
	l7.6-10.7c-2.9-3.4-4.5-7.8-4.5-12.3H476.8z"/>
</svg>
